<svg width="96" height="13" viewBox="0 0 96 13" fill="none" xmlns="http://www.w3.org/2000/svg">
<path d="M0.650978 6.09166L5.70214 1.19861C6.01044 0.899942 6.51003 0.899942 6.81833 1.19861C7.12663 1.49728 7.12663 1.98126 6.81833 2.27993L3.11474 5.86782H94.3972C94.8331 5.86782 95.1865 6.21016 95.1865 6.63248C95.1865 7.05479 94.8331 7.39714 94.3972 7.39714H3.1144L6.81799 10.985C7.12629 11.2837 7.12629 11.7677 6.81799 12.0663C6.66384 12.2157 6.46195 12.2902 6.26006 12.2902C6.05817 12.2902 5.85596 12.2154 5.70214 12.0663L0.650978 7.17297C0.342682 6.87463 0.342682 6.39033 0.650978 6.09166Z" fill="white"/>
</svg>
