<svg width="96" height="13" viewBox="0 0 96 13" fill="none" xmlns="http://www.w3.org/2000/svg">
<path d="M95.349 6.09166L90.2979 1.19861C89.9896 0.899942 89.49 0.899942 89.1817 1.19861C88.8734 1.49728 88.8734 1.98126 89.1817 2.27993L92.8853 5.86782H1.60279C1.16686 5.86782 0.813477 6.21016 0.813477 6.63248C0.813477 7.05479 1.16686 7.39714 1.60279 7.39714H92.8856L89.182 10.985C88.8737 11.2837 88.8737 11.7677 89.182 12.0663C89.3362 12.2157 89.538 12.2902 89.7399 12.2902C89.9418 12.2902 90.144 12.2154 90.2979 12.0663L95.349 7.17297C95.6573 6.87463 95.6573 6.39033 95.349 6.09166Z" fill="white"/>
</svg>
