<svg width="15" height="15" viewBox="0 0 15 15" fill="none" xmlns="http://www.w3.org/2000/svg">
<path fill-rule="evenodd" clip-rule="evenodd" d="M7.26317 14.7097C11.2745 14.7097 14.5263 11.4514 14.5263 7.43202C14.5263 3.41264 11.2745 0.154297 7.26317 0.154297C3.25183 0.154297 0 3.41264 0 7.43202C0 11.4514 3.25183 14.7097 7.26317 14.7097ZM10.6288 6.25586C10.9834 5.90059 10.9834 5.32459 10.6288 4.96932C10.2743 4.61406 9.69942 4.61406 9.34488 4.96932L6.35527 7.96493L5.18146 6.78875C4.8269 6.43349 4.25206 6.43349 3.8975 6.78875C3.54295 7.14402 3.54295 7.72004 3.8975 8.07528L5.71329 9.89471C6.06785 10.25 6.6427 10.25 6.99726 9.89471L10.6288 6.25586Z" fill="#215DFF"/>
</svg>
