<svg width="14" height="14" viewBox="0 0 14 14" fill="none" xmlns="http://www.w3.org/2000/svg">
<path fill-rule="evenodd" clip-rule="evenodd" d="M6.875 0C3.07804 0 0 3.07804 0 6.875C0 10.6719 3.07804 13.75 6.875 13.75C10.6719 13.75 13.75 10.6719 13.75 6.875C13.75 3.07804 10.6719 0 6.875 0ZM9.19194 5.44194C9.436 5.19786 9.436 4.80214 9.19194 4.55806C8.94788 4.31398 8.55212 4.31398 8.30806 4.55806L6.875 5.99113L5.44194 4.55807C5.19786 4.31399 4.80214 4.31399 4.55806 4.55807C4.31398 4.80214 4.31398 5.19788 4.55806 5.44195L5.99113 6.875L4.55806 8.30806C4.31399 8.55212 4.31399 8.94788 4.55806 9.19194C4.80214 9.436 5.19787 9.436 5.44194 9.19194L6.875 7.75887L8.30806 9.19194C8.55212 9.436 8.94788 9.436 9.19194 9.19194C9.436 8.94788 9.436 8.55212 9.19194 8.30806L7.75887 6.875L9.19194 5.44194Z" fill="#ED4238"/>
</svg>
