<svg width="19" height="19" viewBox="0 0 19 19" fill="none" xmlns="http://www.w3.org/2000/svg">
<path d="M18.9554 14.3408C18.734 14.1049 17.9523 13.4077 16.5154 12.4853C15.0679 11.5547 14.0004 10.9746 13.6942 10.8393C13.6672 10.8273 13.6375 10.8229 13.6082 10.8266C13.5789 10.8302 13.5512 10.8418 13.528 10.86C13.0347 11.2447 12.2043 11.9513 12.1598 11.9895C11.8722 12.2359 11.8722 12.2359 11.6368 12.1591C11.2229 12.0234 9.93699 11.3406 8.81647 10.2175C7.69596 9.09445 6.97794 7.77673 6.84222 7.36321C6.76461 7.12741 6.76461 7.12741 7.01186 6.83986C7.05003 6.79532 7.75703 5.96491 8.14171 5.47208C8.15995 5.44888 8.17153 5.42114 8.17519 5.39184C8.17885 5.36255 8.17446 5.33282 8.16249 5.30583C8.0272 4.9992 7.44701 3.93212 6.5165 2.48462C5.59277 1.04814 4.89638 0.266495 4.66057 0.0451066C4.63893 0.0246867 4.61218 0.0104815 4.58315 0.00398773C4.55411 -0.00250602 4.52386 -0.00104779 4.49559 0.00820859C3.67131 0.291469 2.87601 0.652905 2.12054 1.08758C1.39125 1.51154 0.700792 1.99904 0.0572236 2.54442C0.0347582 2.56352 0.0179153 2.58837 0.0085011 2.61631C-0.000913057 2.64426 -0.00254328 2.67424 0.00378517 2.70304C0.0924252 3.11612 0.516116 4.84058 1.83087 7.22919C3.17235 9.66701 4.10201 10.916 6.07203 12.8793C8.04204 14.8425 9.3305 15.8281 11.7709 17.1696C14.1595 18.4844 15.8848 18.9085 16.297 18.9963C16.3259 19.0025 16.3559 19.0009 16.3839 18.9915C16.4119 18.9821 16.4368 18.9653 16.4561 18.9428C17.0013 18.2993 17.4887 17.6088 17.9125 16.8795C18.3471 16.124 18.7085 15.3287 18.9918 14.5045C19.0009 14.4764 19.0023 14.4464 18.9959 14.4176C18.9895 14.3889 18.9755 14.3623 18.9554 14.3408Z" fill="white"/>
</svg>
