<svg width="23" height="24" viewBox="0 0 23 24" fill="none" xmlns="http://www.w3.org/2000/svg">
<path d="M20.9554 16.8408C20.734 16.6049 19.9523 15.9077 18.5154 14.9853C17.0679 14.0547 16.0004 13.4746 15.6942 13.3393C15.6672 13.3273 15.6375 13.3229 15.6082 13.3266C15.5789 13.3302 15.5512 13.3418 15.528 13.36C15.0347 13.7447 14.2043 14.4513 14.1598 14.4895C13.8722 14.7359 13.8722 14.7359 13.6368 14.6591C13.2229 14.5234 11.937 13.8406 10.8165 12.7175C9.69596 11.5945 8.97794 10.2767 8.84222 9.86321C8.76461 9.62741 8.76461 9.62741 9.01186 9.33986C9.05003 9.29532 9.75703 8.46491 10.1417 7.97208C10.16 7.94888 10.1715 7.92114 10.1752 7.89184C10.1788 7.86255 10.1745 7.83282 10.1625 7.80583C10.0272 7.4992 9.44701 6.43212 8.5165 4.98462C7.59277 3.54814 6.89638 2.76649 6.66057 2.54511C6.63893 2.52469 6.61218 2.51048 6.58315 2.50399C6.55411 2.49749 6.52386 2.49895 6.49559 2.50821C5.67131 2.79147 4.87601 3.15291 4.12054 3.58758C3.39125 4.01154 2.70079 4.49904 2.05722 5.04442C2.03476 5.06352 2.01792 5.08837 2.0085 5.11631C1.99909 5.14426 1.99746 5.17424 2.00379 5.20304C2.09243 5.61612 2.51612 7.34058 3.83087 9.72919C5.17235 12.167 6.10201 13.416 8.07203 15.3793C10.042 17.3425 11.3305 18.3281 13.7709 19.6696C16.1595 20.9844 17.8848 21.4085 18.297 21.4963C18.3259 21.5025 18.3559 21.5009 18.3839 21.4915C18.4119 21.4821 18.4368 21.4653 18.4561 21.4428C19.0013 20.7993 19.4887 20.1088 19.9125 19.3795C20.3471 18.624 20.7085 17.8287 20.9918 17.0045C21.0009 16.9764 21.0023 16.9464 20.9959 16.9176C20.9895 16.8889 20.9755 16.8623 20.9554 16.8408Z" fill="#00042A"/>
</svg>
